HIERARCHY
ROOT Hips
{
	OFFSET 0.000000 0.000000 0.000000
	CHANNELS 6 Xposition Yposition Zposition Xrotation Yrotation Zrotation
	JOINT LeftUpLeg_virtual
	{
		OFFSET 0.000000 0.000000 0.000000
		CHANNELS 3 Xrotation Yrotation Zrotation
		JOINT LeftUpLeg
		{
			OFFSET 11.394100 -6.187798 -0.413800
			CHANNELS 3 Xrotation Yrotation Zrotation
			JOINT LeftLeg
			{
				OFFSET 0.430247 -32.302673 3.732800
				CHANNELS 3 Xrotation Yrotation Zrotation
				JOINT LeftFoot
				{
					OFFSET -0.430247 -48.264931 -6.423300
					CHANNELS 3 Xrotation Yrotation Zrotation
					JOINT LeftToeBase
					{
						OFFSET 4.230900 -16.068199 23.438400
						CHANNELS 3 Xrotation Yrotation Zrotation
						JOINT LeftToe_End
						{
							OFFSET 4.510700 0.695400 19.974600
							CHANNELS 3 Xrotation Yrotation Zrotation
							End Site
							{
								OFFSET 0 0 0
							}
						}
					}
				}
			}
		}
	}
	JOINT RightUpLeg_virtual
	{
		OFFSET 0.000000 0.000000 0.000000
		CHANNELS 3 Xrotation Yrotation Zrotation
		JOINT RightUpLeg
		{
			OFFSET -11.333700 -6.187798 -0.413800
			CHANNELS 3 Xrotation Yrotation Zrotation
			JOINT RightLeg
			{
				OFFSET -0.430392 -32.302628 3.733000
				CHANNELS 3 Xrotation Yrotation Zrotation
				JOINT RightFoot
				{
					OFFSET 0.430392 -48.264973 -6.423500
					CHANNELS 3 Xrotation Yrotation Zrotation
					JOINT RightToeBase
					{
						OFFSET -4.230900 -16.068199 23.438400
						CHANNELS 3 Xrotation Yrotation Zrotation
						JOINT RightToe_End
						{
							OFFSET -4.510700 0.695400 19.974600
							CHANNELS 3 Xrotation Yrotation Zrotation
							End Site
							{
								OFFSET 0 0 0
							}
						}
					}
				}
			}
		}
	}
	JOINT Spine_virtual
	{
		OFFSET 0.000000 0.000000 0.000000
		CHANNELS 3 Xrotation Yrotation Zrotation
		JOINT Spine
		{
			OFFSET -0.002400 12.777504 0.315300
			CHANNELS 3 Xrotation Yrotation Zrotation
			JOINT Spine1
			{
				OFFSET -0.002067 5.816869 0.032633
				CHANNELS 3 Xrotation Yrotation Zrotation
				JOINT Spine1_split
				{
					OFFSET -0.002067 5.816869 0.032633
					CHANNELS 3 Xrotation Yrotation Zrotation
					JOINT Spine2
					{
						OFFSET -0.002067 5.816869 0.032633
						CHANNELS 3 Xrotation Yrotation Zrotation
						JOINT Neck_virtual
						{
							OFFSET 0.000000 0.000000 0.000000
							CHANNELS 3 Xrotation Yrotation Zrotation
							JOINT Neck
							{
								OFFSET -0.003700 21.199493 -0.826900
								CHANNELS 3 Xrotation Yrotation Zrotation
								JOINT Head
								{
									OFFSET 0.000000 20.442200 4.834800
									CHANNELS 3 Xrotation Yrotation Zrotation
									JOINT HeadTop_End
									{
										OFFSET 0.000000 34.668396 4.968400
										CHANNELS 3 Xrotation Yrotation Zrotation
										End Site
										{
											OFFSET 0 0 0
										}
									}
								}
							}
						}
						JOINT LeftShoulder_virtual
						{
							OFFSET 0.000000 0.000000 0.000000
							CHANNELS 3 Xrotation Yrotation Zrotation
							JOINT LeftShoulder
							{
								OFFSET 3.288150 8.794197 -1.372250
								CHANNELS 3 Xrotation Yrotation Zrotation
								JOINT LeftShoulder_split
								{
									OFFSET 3.288150 8.794197 -1.372250
									CHANNELS 3 Xrotation Yrotation Zrotation
									JOINT LeftArm
									{
										OFFSET 11.953299 -2.279007 -0.146200
										CHANNELS 3 Xrotation Yrotation Zrotation
										JOINT LeftForeArm
										{
											OFFSET 18.448900 0.000000 0.000000
											CHANNELS 3 Xrotation Yrotation Zrotation
											JOINT LeftHand
											{
												OFFSET 29.527798 0.000000 0.000000
												CHANNELS 3 Xrotation Yrotation Zrotation
												End Site
												{
													OFFSET 0 0 0
												}
											}
										}
									}
								}
							}
						}
						JOINT RightShoulder_virtual
						{
							OFFSET 0.000000 0.000000 0.000000
							CHANNELS 3 Xrotation Yrotation Zrotation
							JOINT RightShoulder
							{
								OFFSET -3.249400 8.794197 -1.372250
								CHANNELS 3 Xrotation Yrotation Zrotation
								JOINT RightShoulder_split
								{
									OFFSET -3.249400 8.794197 -1.372250
									CHANNELS 3 Xrotation Yrotation Zrotation
									JOINT RightArm
									{
										OFFSET -11.953299 -2.279007 -0.146200
										CHANNELS 3 Xrotation Yrotation Zrotation
										JOINT RightForeArm
										{
											OFFSET -18.448900 0.000000 0.000000
											CHANNELS 3 Xrotation Yrotation Zrotation
											JOINT RightHand
											{
												OFFSET -29.527802 0.000000 0.000000
												CHANNELS 3 Xrotation Yrotation Zrotation
												End Site
												{
													OFFSET 0 0 0
												}
											}
										}
									}
								}
							}
						}
					}
				}
			}
		}
	}
}
MOTION
Frames: 4
Frame Time: 0.03333333
-2.194652 87.826889 -7.520359 0.000000 0.000000 0.000000 5.673139 -53.835910 5.558595 -40.620774 17.553455 30.930109 39.026482 -13.302838 -2.880561 -2.271120 -0.507657 -9.664000 -1.086824 -2.308275 -3.136832 0.000000 0.000000 0.000000 4.895335 -52.474380 5.096860 -33.739782 -3.861354 -20.135995 41.449553 12.897550 -4.390109 -10.369885 -4.089369 27.386053 7.791584 11.068527 -21.270001 0.000000 0.000000 0.000000 1.894472 -43.916300 3.216994 5.457708 3.661897 -2.911023 10.358849 -4.552854 -3.867487 0.206510 -0.441794 0.124124 0.000000 0.000000 0.000000 13.803599 -1.521626 -3.921510 -17.004478 28.332311 2.088864 -40.044860 48.926431 19.453193 0.000000 0.000000 0.000000 13.827532 -4.008054 -4.288366 -0.531981 -5.031362 -0.428645 -2.436211 -3.378031 -0.743935 -31.308156 -0.209960 -33.279834 28.006226 -44.846824 19.991487 0.000000 0.000000 0.000000 15.342944 -2.811192 -3.663982 -9.031864 9.111840 -0.351095 6.192204 3.790947 2.700187 -44.001018 -25.356744 30.551778 177.538842 66.732499 -177.620763 0.000000 0.000000 0.000000 
-2.222861 87.843399 -7.526321 0.000000 0.000000 0.000000 5.565006 -53.738511 5.687292 -40.074953 17.495559 30.555237 38.218440 -13.091631 -2.832959 -2.141436 -0.489819 -9.944713 -0.563257 -2.328470 -3.153903 0.000000 0.000000 0.000000 4.951546 -52.487501 5.363622 -33.820795 -3.365186 -20.271310 41.522492 12.985119 -4.426021 -10.503743 -3.922937 27.944397 7.840146 11.219661 -21.499501 0.000000 0.000000 0.000000 2.219206 -43.788083 3.483479 5.514827 3.505106 -2.972855 10.556736 -4.447010 -3.678966 0.159463 -0.409294 0.143001 0.000000 0.000000 0.000000 13.836853 -1.378420 -3.739255 -16.117462 27.891969 2.169519 -38.026843 47.361744 17.953699 0.000000 0.000000 0.000000 13.901806 -3.907525 -4.172513 -0.473097 -4.823122 -1.496478 -2.565771 -3.312208 -0.639857 -29.556885 0.187939 -33.188640 28.741658 -45.660228 20.503970 0.000000 0.000000 0.000000 15.359938 -2.652242 -3.436948 -8.948232 9.471679 0.165400 6.699892 3.417961 3.044840 -45.072442 -24.537649 29.712351 178.986610 65.736227 -179.105346 0.000000 0.000000 0.000000 
-2.292594 88.036407 -7.510540 0.000000 0.000000 0.000000 5.758447 -53.644900 6.173660 -39.538162 17.458788 29.984889 37.233246 -12.854501 -2.805355 -1.891905 -0.402228 -10.278997 -0.170610 -2.337112 -3.114379 0.000000 0.000000 0.000000 5.202701 -52.498832 5.887357 -33.918965 -3.129392 -20.427994 41.411990 12.963124 -4.406072 -10.548898 -3.931837 28.425830 7.785385 11.394019 -21.632430 0.000000 0.000000 0.000000 2.855576 -43.700097 4.040395 5.637924 3.335808 -3.134860 10.673346 -4.276678 -3.496582 0.116881 -0.412871 0.149234 0.000000 0.000000 0.000000 13.908114 -1.183481 -3.565001 -15.585402 27.466202 2.376559 -36.848078 46.204871 16.837144 0.000000 0.000000 0.000000 13.922810 -3.741409 -4.059477 -0.368906 -4.521982 -2.303742 -2.721795 -3.070773 -0.723160 -27.944324 0.279796 -33.131991 28.929034 -45.541803 20.482055 0.000000 0.000000 0.000000 15.318159 -2.451679 -3.220353 -8.935107 9.572344 0.734293 7.154810 3.078102 3.496746 -45.807709 -23.283372 29.362577 -179.674109 65.453669 179.508737 0.000000 0.000000 0.000000 
-2.370365 88.250000 -7.453022 0.000000 0.000000 0.000000 6.084172 -53.592502 6.887385 -39.164072 17.425187 29.303663 36.457999 -12.684579 -2.734394 -1.627817 -0.300882 -10.672213 -0.093497 -2.319175 -3.056017 0.000000 0.000000 0.000000 5.564147 -52.534612 6.583300 -34.056768 -3.141321 -20.608107 41.397213 12.821358 -4.371088 -10.747313 -4.168016 28.696787 7.769360 11.530252 -21.568482 0.000000 0.000000 0.000000 3.521355 -43.655922 4.739284 5.854957 3.186918 -3.396306 10.737546 -4.071238 -3.352632 0.091668 -0.441511 0.118565 0.000000 0.000000 0.000000 14.040192 -0.970100 -3.438526 -15.448035 27.058518 2.691359 -36.385910 45.495364 16.094659 0.000000 0.000000 0.000000 13.938939 -3.539234 -3.968336 -0.225730 -4.234727 -2.667106 -2.899601 -2.793231 -0.949710 -26.747460 0.035501 -32.996115 28.529690 -44.503501 19.967518 0.000000 0.000000 0.000000 15.292841 -2.236476 -3.044896 -8.957182 9.461625 1.239210 7.402403 2.862038 3.803247 -46.262944 -22.082401 29.482512 -178.530449 65.617805 178.296050 0.000000 0.000000 0.000000 
